<svg width="90" height="92" xmlns="http://www.w3.org/2000/svg" xmlns:xlink="http://www.w3.org/1999/xlink" overflow="hidden"><defs><clipPath id="clip0"><rect x="428" y="222" width="90" height="92"/></clipPath><clipPath id="clip1"><rect x="429" y="223" width="88" height="90"/></clipPath><clipPath id="clip2"><rect x="429" y="223" width="88" height="90"/></clipPath></defs><g clip-path="url(#clip0)" transform="translate(-428 -222)"><g clip-path="url(#clip1)"><g clip-path="url(#clip2)"><path d="M303.126 82.1276C303.126 59.0364 321.622 40.3173 344.438 40.3173 367.255 40.3173 385.751 59.0364 385.751 82.1276 385.751 105.219 367.255 123.938 344.438 123.938 321.622 123.938 303.126 105.219 303.126 82.1276ZM309.462 82.1276C309.462 101.72 325.122 117.602 344.438 117.602 363.755 117.602 379.415 101.72 379.415 82.1276 379.415 62.536 363.755 46.6538 344.438 46.6538 325.122 46.6538 309.462 62.536 309.462 82.1276Z" stroke="#FFFFFF" stroke-width="1.32731" stroke-miterlimit="8" fill="#FFFFFF" fill-rule="evenodd" transform="matrix(1 0 0 1.00129 128.554 186.025)"/><text fill="#FFFFFF" font-family="Arial Rounded MT Bold,Arial Rounded MT Bold_MSFontService,sans-serif" font-weight="700" font-size="64" transform="matrix(0.995486 0 0 0.996769 461.6 292)">!</text></g></g></g></svg>