<svg width="79" height="79" xmlns="http://www.w3.org/2000/svg" xmlns:xlink="http://www.w3.org/1999/xlink" overflow="hidden"><defs><clipPath id="clip0"><rect x="568" y="256" width="79" height="79"/></clipPath><clipPath id="clip1"><rect x="568" y="257" width="78" height="77"/></clipPath><clipPath id="clip2"><rect x="568" y="257" width="78" height="77"/></clipPath><clipPath id="clip3"><rect x="568" y="257" width="78" height="77"/></clipPath><clipPath id="clip4"><rect x="568" y="257" width="78" height="77"/></clipPath></defs><g clip-path="url(#clip0)" transform="translate(-568 -256)"><g clip-path="url(#clip1)"><g clip-path="url(#clip2)"><g clip-path="url(#clip3)"><g clip-path="url(#clip4)"><path d="M0 5.24522C-8.22353e-16 2.34836 2.34835 0 5.24519 0L98.1034 0C101 0 103.349 2.34836 103.349 5.24522L103.349 5.24522C103.349 8.14208 101 10.4904 98.1034 10.4904L5.24519 10.4904C2.34835 10.4904 0 8.14208 0 5.24522Z" fill="#40742D" fill-rule="evenodd" transform="matrix(-0.708455 0.705766 0.708455 0.705766 640.19 255.296)"/><path d="M0 5.24522C-8.22353e-16 2.34836 2.34835 0 5.24519 0L98.1034 0C101 0 103.349 2.34836 103.349 5.24522L103.349 5.24522C103.349 8.14208 101 10.4904 98.1034 10.4904L5.24519 10.4904C2.34835 10.4904 0 8.14208 0 5.24522Z" fill="#40742D" fill-rule="evenodd" transform="matrix(-0.708455 -0.705766 -0.708455 0.705766 647.63 328.236)"/></g></g></g></g></g></svg>