<svg width="220" height="220" xmlns="http://www.w3.org/2000/svg" xmlns:xlink="http://www.w3.org/1999/xlink" xml:space="preserve" overflow="hidden"><defs><clipPath id="clip0"><rect x="2231" y="215" width="220" height="220"/></clipPath></defs><g clip-path="url(#clip0)" transform="translate(-2231 -215)"><path d="M2341 308.346C2331.79 308.346 2324.34 315.798 2324.34 325 2324.34 334.202 2331.79 341.653 2341 341.653 2350.21 341.653 2357.66 334.202 2357.66 325 2357.66 315.798 2350.21 308.346 2341 308.346ZM2341 288.342C2361.21 288.342 2377.67 304.796 2377.67 325 2377.67 345.204 2361.21 361.658 2341 361.658 2320.79 361.658 2304.33 345.204 2304.33 325 2304.33 304.796 2320.79 288.342 2341 288.342ZM2324.34 235 2324.34 260.25C2324.34 264.3 2321.89 267.95 2318.14 269.5 2313.24 271.55 2308.58 274.2 2304.38 277.45 2301.18 279.95 2296.78 280.25 2293.27 278.2L2271.36 265.55 2254.65 294.45 2276.56 307.05C2280.07 309.1 2282.02 313.05 2281.52 317.05 2281.17 319.7 2280.97 322.35 2280.97 325 2280.97 327.65 2281.17 330.3 2281.52 332.95 2282.02 336.95 2280.07 340.9 2276.56 342.95L2254.65 355.55 2271.36 384.45 2293.27 371.8C2296.78 369.75 2301.18 370.05 2304.38 372.55 2308.58 375.8 2313.24 378.45 2318.14 380.5 2321.89 382.05 2324.34 385.7 2324.34 389.75L2324.34 415 2357.66 415 2357.66 389.75C2357.66 385.7 2360.11 382.05 2363.86 380.5 2368.76 378.45 2373.42 375.8 2377.62 372.55 2380.82 370.05 2385.22 369.75 2388.73 371.8L2410.64 384.45 2427.35 355.55 2405.44 342.95C2401.93 340.9 2399.98 336.95 2400.48 332.95 2400.83 330.3 2401.03 327.65 2401.03 325 2401.03 322.35 2400.83 319.7 2400.48 317.05 2399.98 313.05 2401.93 309.1 2405.44 307.05L2427.35 294.45 2410.64 265.55 2388.73 278.2C2385.22 280.25 2380.82 279.95 2377.62 277.45 2373.42 274.2 2368.76 271.55 2363.86 269.5 2360.11 267.95 2357.66 264.3 2357.66 260.25L2357.66 235ZM2314.34 215 2367.66 215C2373.22 215 2377.67 219.5 2377.67 225L2377.67 253.9C2379.92 255.05 2382.12 256.3 2384.27 257.7L2409.29 243.25C2411.59 241.9 2414.34 241.55 2416.89 242.25 2419.44 242.95 2421.64 244.6 2422.99 246.9L2449.66 293.1C2452.41 297.9 2450.76 304 2446.01 306.75L2420.94 321.2C2420.99 322.45 2421.04 323.75 2421.04 325 2421.04 326.25 2420.99 327.55 2420.94 328.8L2446.01 343.25C2448.31 344.55 2449.96 346.75 2450.66 349.3 2451.36 351.9 2450.96 354.6 2449.66 356.9L2422.99 403.1C2421.64 405.4 2419.44 407.05 2416.89 407.75 2414.34 408.45 2411.59 408.1 2409.29 406.75L2384.27 392.3C2382.12 393.7 2379.92 394.95 2377.67 396.1L2377.67 425C2377.67 430.5 2373.22 435 2367.66 435L2314.34 435C2308.78 435 2304.33 430.5 2304.33 425L2304.33 396.1C2302.08 394.95 2299.88 393.7 2297.73 392.3L2272.71 406.75C2267.91 409.5 2261.81 407.9 2259.01 403.1L2232.34 356.9C2229.59 352.1 2231.24 346 2235.99 343.25L2261.06 328.8C2261.01 327.55 2260.96 326.25 2260.96 325 2260.96 323.75 2261.01 322.45 2261.06 321.2L2235.99 306.75C2233.69 305.45 2232.04 303.25 2231.34 300.7 2230.64 298.1 2231.04 295.4 2232.34 293.1L2259.01 246.9C2260.36 244.6 2262.56 242.95 2265.11 242.25 2267.66 241.55 2270.41 241.9 2272.71 243.25L2297.73 257.7C2299.88 256.3 2302.08 255.05 2304.33 253.9L2304.33 225C2304.33 219.5 2308.78 215 2314.34 215Z" fill="#40742D" fill-rule="evenodd"/></g></svg>