<svg width="66" height="40" xmlns="http://www.w3.org/2000/svg" xmlns:xlink="http://www.w3.org/1999/xlink" overflow="hidden"><defs><clipPath id="clip0"><rect x="174" y="190" width="66" height="40"/></clipPath></defs><g clip-path="url(#clip0)" transform="translate(-174 -190)"><path d="M239 209.487C239 215.718 225.801 229 207 229 188.674 229 175 215.936 175 209.487 175 203.045 188.738 190 207 190 225.953 190 239 203.045 239 209.487ZM207.025 193.561C198.515 193.561 191.608 200.695 191.608 209.5 191.608 218.305 198.515 225.439 207.025 225.439 215.548 225.439 222.449 218.305 222.449 209.5 222.449 200.695 215.548 193.561 207.025 193.561ZM207 199.324C201.576 199.324 197.178 203.871 197.178 209.474 197.178 215.078 201.576 219.625 207 219.625 212.424 219.625 216.815 215.078 216.815 209.474 216.815 203.871 212.424 199.324 207 199.324Z" fill="#6A882A" fill-rule="evenodd"/></g></svg>